<svg width="52" height="36" viewBox="0 0 52 36" fill="none" xmlns="http://www.w3.org/2000/svg">
<path fill-rule="evenodd" clip-rule="evenodd" d="M29.8805 17.0746L28.8457 16.0398L26.6467 18.0389L24.3184 20.1556L20.8463 23.312C20.5162 23.6121 20.3823 24.0719 20.4997 24.5023C20.6199 24.9432 20.9827 25.2759 21.4323 25.3577L21.4565 25.3621C21.8693 25.4371 22.2918 25.2958 22.5763 24.9875L25.7014 21.602L27.8507 19.2736L29.8805 17.0746ZM21.7313 24.836C21.3741 24.836 21.0845 24.5464 21.0845 24.1892C21.0845 23.832 21.3741 23.5424 21.7313 23.5424C22.0885 23.5424 22.3781 23.832 22.3781 24.1892C22.3781 24.5464 22.0885 24.836 21.7313 24.836Z" fill="#0379FC"/>
<path fill-rule="evenodd" clip-rule="evenodd" d="M34.6666 14.7462L35.184 14.2288L31.5621 10.6069L31.0447 11.1243L34.6666 14.7462ZM34.3556 15.0573L33.8427 15.5702L30.2208 11.9483L30.7337 11.4354L34.3556 15.0573ZM30.5273 18.8855L33.5024 15.9104L29.8806 12.2885L27.0348 15.1343C29.1662 14.708 31.0321 16.614 30.5606 18.7359L30.5273 18.8855ZM30.9154 15.2637C30.7011 15.2637 30.5274 15.09 30.5274 14.8757C30.5274 14.6614 30.7011 14.4876 30.9154 14.4876C31.1297 14.4876 31.3035 14.6614 31.3035 14.8757C31.3035 15.09 31.1297 15.2637 30.9154 15.2637Z" fill="#0379FC"/>
<path d="M37.3831 18.7563V20.0499H52V18.7563H37.3831Z" fill="#0865F6"/>
<path d="M36.995 15.2639V16.5574H47.602V15.2639H36.995Z" fill="#0379FC"/>
<path d="M14.6169 18.7563V20.0499H-3.05176e-05V18.7563H14.6169Z" fill="#0865F6"/>
<path d="M15.0049 15.2639V16.5574H4.39796V15.2639H15.0049Z" fill="#0379FC"/>
<path d="M43.4627 12.6769H36.4776C34.5776 8.79767 30.6349 6.33855 26.3154 6.33855H26C21.7249 6.33855 17.8228 8.77234 15.9424 12.6116L15.9104 12.6769H8.79599L9.44276 10.8659H13.9701L15.5224 8.66691L13.9701 4.52761L16.8159 2.58731L20.4378 5.17437L23.0248 4.2689L24.3184 0.000244141H27.5522L28.9751 4.2689L31.6915 5.04502L35.3134 2.45796L38.0298 4.39825L36.4776 8.53756L38.2885 10.7366H42.6865L43.4627 12.6769Z" fill="#0379FC"/>
<path d="M43.4627 22.5077H36.4776C34.5776 26.3869 30.6349 28.846 26.3154 28.846H26C21.7249 28.846 17.8228 26.4122 15.9424 22.573L15.9104 22.5077H8.79599L9.44276 24.3187H13.9701L15.5224 26.5177L13.9701 30.657L16.8159 32.5973L20.4378 30.0102L23.0248 30.9157L24.3184 35.1843H27.5522L28.9751 30.9157L31.6915 30.1395L35.3134 32.7266L38.0298 30.7863L36.4776 26.647L38.2885 24.448H42.6865L43.4627 22.5077Z" fill="#0865F6"/>
</svg>
