<svg width="52" height="36" fill="none" xmlns="http://www.w3.org/2000/svg"><path fill-rule="evenodd" clip-rule="evenodd" d="M29.88 17.075l-1.034-1.035-2.2 1.999-2.328 2.117-3.472 3.156a1.187 1.187 0 00.586 2.046l.024.004c.413.075.836-.066 1.12-.374l3.125-3.386 2.15-2.328 2.03-2.2zm-8.149 7.761a.647.647 0 110-1.294.647.647 0 010 1.294z" fill="#0379FC"/><path fill-rule="evenodd" clip-rule="evenodd" d="M34.667 14.746l.517-.517-3.622-3.622-.517.517 3.622 3.622zm-.311.311l-.513.513-3.622-3.622.513-.513 3.622 3.622zm-3.829 3.829l2.975-2.976-3.621-3.621-2.846 2.845c2.131-.426 3.997 1.48 3.526 3.602l-.034.15zm.388-3.622a.388.388 0 110-.776.388.388 0 010 .776z" fill="#0379FC"/><path d="M37.383 18.756v1.294H52v-1.294H37.383z" fill="#0865F6"/><path d="M36.995 15.264v1.293h10.607v-1.293H36.995z" fill="#0379FC"/><path d="M14.617 18.756v1.294H0v-1.294h14.617z" fill="#0865F6"/><path d="M15.005 15.264v1.293H4.398v-1.293h10.607zm28.458-2.587h-6.985a11.316 11.316 0 00-10.163-6.338H26a11.2 11.2 0 00-10.058 6.273l-.032.065H8.796l.647-1.811h4.527l1.552-2.2-1.552-4.138 2.846-1.94 3.622 2.586 2.587-.905L24.318 0h3.234l1.423 4.269 2.716.776 3.622-2.587 2.717 1.94-1.552 4.14 1.81 2.199h4.399l.776 1.94z" fill="#0379FC"/><path d="M43.463 22.508h-6.985a11.316 11.316 0 01-10.163 6.338H26a11.2 11.2 0 01-10.058-6.273l-.032-.065H8.796l.647 1.81h4.527l1.552 2.2-1.552 4.139 2.846 1.94 3.622-2.587 2.587.906 1.293 4.268h3.234l1.423-4.268 2.716-.776 3.622 2.587 2.717-1.94-1.552-4.14 1.81-2.199h4.399l.776-1.94z" fill="#0865F6"/></svg>